
<svg viewBox="0 0 512 512" xmlns="http://www.w3.org/2000/svg">
    <path d="M346.5 96H314.5C301.8 96 289.6 90.9 280.6 81.9L267.3 68.7C261.1 62.5 250.9 62.5 244.7 68.7L231.4 81.9C222.4 90.9 210.2 96 197.5 96H165.5C178.7 58.7 214.2 32 256 32 297.8 32 333.4 58.7 346.5 96ZM352 128V144C352 197 309 240 256 240 203 240 160 197 160 144V128H197.5C218.7 128 239.1 119.6 254.1 104.6L256 102.7 257.9 104.6C272.9 119.6 293.3 128 314.5 128H352ZM256 272C302.7 272 343.5 247 365.9 209.7 374.6 218.5 386.7 224 400 224 426.5 224 448 202.5 448 176V112C448 85.5 426.5 64 400 64 389.4 64 379.6 67.4 371.7 73.2 351.2 29.9 307.1 0 256 0 204.9 0 160.8 29.9 140.3 73.2 132.4 67.4 122.6 64 112 64 85.5 64 64 85.5 64 112V176C64 202.5 85.5 224 112 224 125.4 224 137.4 218.5 146.1 209.7 168.5 247 209.3 272 256 272ZM384 176V112C384 103.2 391.2 96 400 96 408.8 96 416 103.2 416 112V176C416 184.8 408.8 192 400 192 391.2 192 384 184.8 384 176ZM200 336H312C387.1 336 448 396.9 448 472V480H64V472C64 396.9 124.9 336 200 336ZM200 304C107.2 304 32 379.2 32 472V480C32 497.7 46.3 512 64 512H448C465.7 512 480 497.7 480 480V472C480 379.2 404.8 304 312 304H200ZM128 112V176C128 184.8 120.8 192 112 192 103.2 192 96 184.8 96 176V112C96 103.2 103.2 96 112 96 120.8 96 128 103.2 128 112Z"/>
</svg>