
<svg viewBox="0 0 512 512" xmlns="http://www.w3.org/2000/svg">
    <path d="M314.5 96H282.5C269.8 96 257.6 90.9 248.6 81.9L235.3 68.7C229.1 62.5 218.9 62.5 212.7 68.7L199.4 81.9C190.4 90.9 178.2 96 165.5 96H133.5C146.7 58.7 182.2 32 224 32 265.8 32 301.4 58.7 314.5 96ZM320 128V144C320 197 277 240 224 240 171 240 128 197 128 144V128H165.5C186.7 128 207.1 119.6 222.1 104.6L224 102.7 225.9 104.6C240.9 119.6 261.3 128 282.5 128H320ZM224 272C270.7 272 311.5 247 333.9 209.7 342.6 218.5 354.7 224 368 224 394.5 224 416 202.5 416 176V112C416 85.5 394.5 64 368 64 357.4 64 347.6 67.4 339.7 73.2 319.2 29.9 275.1 0 224 0 172.9 0 128.8 29.9 108.3 73.2 100.4 67.4 90.6 64 80 64 53.5 64 32 85.5 32 112V176C32 202.5 53.5 224 80 224 93.4 224 105.4 218.5 114.1 209.7 136.5 247 177.3 272 224 272ZM352 176V144 128 112C352 103.2 359.2 96 368 96 376.8 96 384 103.2 384 112V176C384 184.8 376.8 192 368 192 359.2 192 352 184.8 352 176ZM168 336H280C355.1 336 416 396.9 416 472V480H32V472C32 396.9 92.9 336 168 336ZM168 304C75.2 304 0 379.2 0 472V480C0 497.7 14.3 512 32 512H416C433.7 512 448 497.7 448 480V472C448 379.2 372.8 304 280 304H168ZM96 144V176C96 184.8 88.8 192 80 192 71.2 192 64 184.8 64 176V112C64 103.2 71.2 96 80 96 88.8 96 96 103.2 96 112V128 144Z"/>
</svg>