
<svg viewBox="-32 0 512 512" xmlns="http://www.w3.org/2000/svg">
    <path d="M320 352H128C57.31 352 0 409.31 0 480 0 497.67 14.33 512 32 512H416C433.67 512 448 497.67 448 480 448 409.3 390.7 352 320 352ZM184.7 480L224 439.1 263.3 480H184.7ZM307.6 480L235.51 404.92C229.51 398.639 218.45 398.639 212.45 404.92L140.4 480H32C32 427.06 75.06 384 128 384H320C372.94 384 416 427.06 416 480H307.6ZM89.3 293.9L207.8 320H240.11L358.61 293.91C374.09 290.502 384.78 276.48 383.85 260.8L376.944 143.8C372.8 63.19 305.5 0 224 0 170.4 0 123.4 27.6 96 69.22V32C104.836 32 112 24.836 112 16 112 7.162 104.8 0 96 0H80C71.16 0 64 7.162 64 16V264L64.398 263.615C64.86 278.1 74.79 290.7 89.3 293.9ZM351.8 262.7L282.24 278.01C291.115 231.91 326.26 206.44 347.91 194.94L351.8 262.7ZM345.9 160.5C310.19 175.46 256.57 215.82 249.47 285.2L240 287.3V160H345.9V160.5ZM224 32C282.37 32 331.1 72.95 342.4 128H105.6C116.9 73.02 165.6 32 224 32ZM102.1 160H208V287.3L198.5 285.2C191.4 215.8 137.7 175.4 102 160.5L102.1 160ZM100 194.9C121.6 206.3 156.9 231.8 165.7 277.1L96 262.7 100 194.9Z"/>
</svg>