
<svg viewBox="-96 0 512 512" xmlns="http://www.w3.org/2000/svg">
    <path d="M310.6 361.4C323.1 373.9 323.1 394.15 310.6 406.65 304.4 412.9 296.2 416 288 416 279.8 416 271.62 412.875 265.38 406.625L160 301.3 54.63 406.6C48.38 412.9 40.19 416 32 416 23.81 416 15.63 412.9 9.375 406.6 -3.125 394.1-3.125 373.85 9.375 361.35L114.775 255.95 9.375 150.6C-3.125 138.1-3.125 117.85 9.375 105.35 21.875 92.85 42.125 92.85 54.625 105.35L160 210.8 265.4 105.4C277.9 92.9 298.15 92.9 310.65 105.4 323.15 117.9 323.15 138.15 310.65 150.65L205.25 256.05 310.6 361.4Z"/>
</svg>