
<svg viewBox="0 0 512 512" xmlns="http://www.w3.org/2000/svg">
    <path d="M400 320H352V192H400C444.2 192 480 156.2 480 112 480 67.82 444.2 32 400 32 355.8 32 320 67.82 320 112V160H192V112C192 67.82 156.2 32 112 32 67.8 32 32 67.82 32 112 32 156.2 67.82 192 112 192H160V320H112C67.82 320 32 355.8 32 400 32 444.2 67.82 480 112 480 156.18 480 192 444.2 192 400V352H320V400C320 444.18 355.82 480 400 480 444.18 480 480 444.18 480 400 480 355.8 444.2 320 400 320ZM352 112C352 85.53 373.5 64 400 64 426.5 64 448 85.53 448 112 448 138.47 426.5 160 400 160H352V112ZM160 400C160 426.5 138.5 448 112 448 85.5 448 64 426.5 64 400 64 373.5 85.53 352 112 352H160V400ZM160 160H112C85.53 160 64 138.5 64 112 64 85.5 85.53 64 112 64 138.47 64 160 85.53 160 112V160ZM320 320H192V192H320V320ZM400 448C373.53 448 352 426.47 352 400V352H400C426.47 352 448 373.53 448 400 448 426.47 426.5 448 400 448Z"/>
</svg>