
<svg viewBox="-32 0 512 512" xmlns="http://www.w3.org/2000/svg">
    <path d="M224 352C228.094 352 232.188 350.438 235.31 347.312L379.31 203.312C385.56 197.062 385.56 186.932 379.31 180.692 373.06 174.452 362.93 174.442 356.69 180.692L240 297.4V16C240 7.156 232.8 0 224 0 215.2 0 208 7.156 208 16V297.4L91.31 180.7C85.06 174.45 74.93 174.45 68.69 180.7 62.45 186.95 62.44 197.08 68.69 203.32L212.69 347.32C215.8 350.4 219.9 352 224 352ZM448 432V336C448 327.156 440.844 320 432 320 423.156 320 416 327.2 416 336V432C416 458.47 394.47 480 368 480H80C53.53 480 32 458.5 32 432V336C32 327.2 24.84 320 16 320 7.16 320 0 327.2 0 336V432C0 476.1 35.88 512 80 512H368C412.1 512 448 476.1 448 432Z"/>
</svg>