
<svg viewBox="0 0 512 512" xmlns="http://www.w3.org/2000/svg">
    <path d="M96 0C60.7 0 32 28.7 32 64V448C32 483.3 60.7 512 96 512H464C472.8 512 480 504.8 480 496 480 487.2 472.8 480 464 480H448V413.3C466.6 406.7 480 388.9 480 368V48C480 21.5 458.5 0 432 0H96ZM416 416V480H96C78.3 480 64 465.7 64 448 64 430.3 78.3 416 96 416H416ZM96 384C84.3 384 73.4 387.1 64 392.6V64C64 46.3 78.3 32 96 32H432C440.8 32 448 39.2 448 48V368C448 376.8 440.8 384 432 384H96ZM222.5 86.3C218.9 82.1 212.8 80.9 207.9 83.5 162.8 106.8 132 153.8 132 208 132 285.3 194.7 348 272 348 349.3 348 412 285.3 412 208 412 153.8 381.2 106.8 336.1 83.5 331.2 81 325.1 82.1 321.5 86.3 317.9 90.5 317.6 96.6 320.8 101.1 327.9 111 332 123 332 136 332 153.8 324.3 169.7 312 180.7 307.1 185.1 306.6 192.6 311 197.6 319.1 206.8 324 218.8 324 232 324 255.2 308.8 274.9 287.7 281.6L286.8 258.2 289 260.4C292.1 263.5 297.2 263.5 300.3 260.4 303.4 257.3 303.4 252.2 300.3 249.1L291.3 240.1H304C308.4 240.1 312 236.5 312 232.1 312 227.7 308.4 224.1 304 224.1H291.3L300.3 215.1C303.4 212 303.4 206.9 300.3 203.8 297.2 200.7 292.1 200.7 289 203.8L284.8 208 280 87.7C279.8 83.4 276.3 80 272 80 267.7 80 264.2 83.4 264 87.7L259.2 207.9 255 203.7C251.9 200.6 246.8 200.6 243.7 203.7 240.6 206.8 240.6 211.9 243.7 215L252.7 224H240C235.6 224 232 227.6 232 232 232 236.4 235.6 240 240 240H252.7L243.7 249C240.6 252.1 240.6 257.2 243.7 260.3 246.8 263.4 251.9 263.4 255 260.3L257.2 258.1 256.3 281.5C235.3 274.8 220 255.2 220 231.9 220 218.7 224.9 206.7 233 197.5 237.4 192.6 236.9 185 232 180.6 219.7 169.6 212 153.6 212 135.9 212 122.9 216.1 110.9 223.1 101.1 226.3 96.6 226 90.5 222.4 86.3H222.5ZM355.6 127.5C366.6 138.9 375.3 152.6 380.9 167.8L362.4 186.3C359.3 189.4 359.3 194.5 362.4 197.6 365.5 200.7 370.6 200.7 373.7 197.6L385.9 185.4C387.3 192.7 388.1 200.2 388.1 207.9V208.6L362.4 234.3C359.3 237.4 359.3 242.5 362.4 245.6 365.5 248.7 370.6 248.7 373.7 245.6L385 234.3C373.1 285.7 327 324 272 324 217 324 170.9 285.7 159 234.3L170.3 245.6C173.4 248.7 178.5 248.7 181.6 245.6 184.7 242.5 184.7 237.4 181.6 234.3L156 208.7V208C156 200.3 156.8 192.8 158.2 185.5L170.4 197.7C173.5 200.8 178.6 200.8 181.7 197.7 184.8 194.6 184.8 189.5 181.7 186.4L163.2 167.9C168.8 152.7 177.5 139.1 188.5 127.6 188.2 130.4 188.1 133.2 188.1 136 188.1 156.9 195.7 176 208.3 190.7 200.5 202.6 196 216.8 196 232 196 274 230 308 272 308 314 308 348 274 348 232 348 216.8 343.5 202.6 335.8 190.7 348.4 176 356 156.9 356 136 356 133.2 355.9 130.3 355.6 127.6V127.5Z"/>
</svg>