
<svg viewBox="0 0 512 512" xmlns="http://www.w3.org/2000/svg">
    <path d="M64 0C28.7 0 0 28.7 0 64V448 448C0 483.3 28.7 512 64 512H432C440.8 512 448 504.8 448 496 448 487.2 440.8 480 432 480H416V413.3C434.6 406.7 448 388.9 448 368V48C448 21.5 426.5 0 400 0H64ZM384 416V480H64C46.3 480 32 465.7 32 448 32 430.3 46.3 416 64 416H384ZM64 384C52.3 384 41.4 387.1 32 392.6V64C32 46.3 46.3 32 64 32H400C408.8 32 416 39.2 416 48V368C416 376.8 408.8 384 400 384H64ZM190.5 86.3C186.9 82.1 180.8 80.9 175.9 83.5 130.8 106.8 100 153.8 100 208 100 285.3 162.7 348 240 348 317.3 348 380 285.3 380 208 380 153.8 349.2 106.8 304.1 83.5 299.2 81 293.1 82.1 289.5 86.3 285.9 90.5 285.6 96.6 288.8 101.1 295.9 111 300 123 300 136 300 153.8 292.3 169.7 280 180.7 275.1 185.1 274.6 192.6 279 197.6 287.1 206.8 292 218.8 292 232 292 255.2 276.8 274.9 255.7 281.6L254.8 258.2 257 260.4C260.1 263.5 265.2 263.5 268.3 260.4 271.4 257.3 271.4 252.2 268.3 249.1L259.3 240.1H272C276.4 240.1 280 236.5 280 232.1 280 227.7 276.4 224.1 272 224.1H259.3L268.3 215.1C271.4 212 271.4 206.9 268.3 203.8 265.2 200.7 260.1 200.7 257 203.8L252.8 208 248 87.7C247.8 83.4 244.3 80 240 80 235.7 80 232.2 83.4 232 87.7L227.2 207.9 223 203.7C219.9 200.6 214.8 200.6 211.7 203.7 208.6 206.8 208.6 211.9 211.7 215L220.7 224H208C203.6 224 200 227.6 200 232 200 236.4 203.6 240 208 240H220.7L211.7 249C208.6 252.1 208.6 257.2 211.7 260.3 214.8 263.4 219.9 263.4 223 260.3L225.2 258.1 224.3 281.5C203.3 274.8 188 255.2 188 231.9 188 218.7 192.9 206.7 201 197.5 205.4 192.6 204.9 185 200 180.6 187.7 169.6 180 153.6 180 135.9 180 122.9 184.1 110.9 191.1 101.1 194.3 96.6 194 90.5 190.4 86.3ZM323.6 127.5C334.6 138.9 343.3 152.6 348.9 167.8L330.4 186.3C327.3 189.4 327.3 194.5 330.4 197.6 333.5 200.7 338.6 200.7 341.7 197.6L353.9 185.4C355.3 192.7 356.1 200.2 356.1 207.9V208.6L330.4 234.3C327.3 237.4 327.3 242.5 330.4 245.6 333.5 248.7 338.6 248.7 341.7 245.6L353 234.3C341.1 285.7 295 324 240 324 185 324 138.9 285.7 127 234.3L138.3 245.6C141.4 248.7 146.5 248.7 149.6 245.6 152.7 242.5 152.7 237.4 149.6 234.3L124 208.7V208C124 200.3 124.8 192.8 126.2 185.5L138.4 197.7C141.5 200.8 146.6 200.8 149.7 197.7 152.8 194.6 152.8 189.5 149.7 186.4L131.2 167.9C136.8 152.7 145.5 139.1 156.5 127.6 156.2 130.4 156.1 133.2 156.1 136 156.1 156.9 163.7 176 176.3 190.7 168.5 202.6 164 216.8 164 232 164 274 198 308 240 308 282 308 316 274 316 232 316 216.8 311.5 202.6 303.8 190.7 316.4 176 324 156.9 324 136 324 133.2 323.9 130.3 323.6 127.6Z"/>
</svg>