
<svg viewBox="0 -64 640 640" xmlns="http://www.w3.org/2000/svg">
    <path d="M617.8 136.7L331.5 34C324 31.33 315.9 31.36 308.5 33.98L22.22 136.7C8.719 141.5 0 153.8 0 167.1 0 180.4 8.719 193.57 22.22 198.41L48 208.6V321.7L16.41 460.5C15.316 465.25 16.456 470.219 19.488 474.03 22.519 477.841 27.13 480 32.01 480H95.99C100.849 480 105.451 477.781 108.48 474 111.527 470.219 112.668 465.25 111.605 460.5L80 319.6V220L308.5 301.99C312.203 303.303 316.078 303.928 319.97 303.928 323.876 303.928 327.782 303.271 331.53 301.959L617.73 199.259C631.3 194.5 640 182.2 640 167.1 640 152 631.3 141.5 617.8 136.7ZM52.08 447.1L64.17 394.35 76.01 447.1H52.08ZM319.3 271.9L129.5 203.8 324.7 143.3C333.138 140.675 337.9 131.75 335.27 123.28 332.661 114.873 323.78 110.05 315.26 112.73L79.4 185.8 32 168 320.7 64.1 608 168 319.3 271.9ZM482.3 288.1C473.534 289.256 467.36 297.288 468.52 306.07L479.88 392.7C481.036 401.607 475.224 410.36 465.08 415.04 421.17 435.35 371.52 446.76 321.88 447.98H318.5C268.48 446.761 218.83 435.35 174.9 415.04 164.76 410.352 158.95 401.6 160.1 392.73L171.5 306.1C172.656 297.318 166.484 289.29 157.72 288.13 148.8 286.9 140.9 293.2 139.8 301.9L128.44 388.59C125.424 411.62 138.409 433.44 161.52 444.12 209.4 466.2 263.4 478.7 318.1 480H322.241C376.601 478.656 430.641 466.25 478.441 444.12 501.551 433.43 514.531 411.62 511.521 388.56L500.161 301.9C499.1 293.2 491.1 286.9 482.3 288.1Z"/>
</svg>