
<svg viewBox="0 0 576 576" xmlns="http://www.w3.org/2000/svg">
    <path d="M512 64C529.673 64 544 78.326 544 96 544 113.673 529.673 128 512 128 494.326 128 480 113.673 480 96 480 78.326 494.326 64 512 64ZM512 160C547.346 160 576 131.346 576 96 576 60.653 547.346 32 512 32 476.653 32 448 60.653 448 96 448 131.346 476.653 160 512 160ZM224 512C118 512 32 426 32 320 32 311.9 32.5 303.9 33.5 296H92.1C100.6 296 108.7 299.4 114.7 305.4L152 342.6V374.1C152 391.1 161.6 406.7 176.8 414.3 181.2 416.5 184 421 184 425.9V441.2C184 467 205 488 230.8 488 247 488 262.1 479.6 270.7 465.7L316.2 391.8C324 379.2 328.1 364.7 328.1 349.9V328C328.1 301.5 306.6 280 280.1 280H218.5C213.3 280 208.5 277 206.1 272.3 203.9 267.9 204.2 262.6 207 258.4L249.3 195C259.1 180.3 263.7 162.9 262.6 145.3L261.7 131.7C349.6 149.2 416 226.8 416 320 416 426 330 512 224 512ZM40.3 264C64.3 185.3 137.4 128 224 128 225.8 128 227.5 128 229.3 128.1L230.6 147.4C231.3 157.9 228.5 168.4 222.6 177.2L180.3 240.7C171.2 254.4 170.1 271.9 177.4 286.6 185.2 302.1 201 311.9 218.4 311.9H280C288.8 311.9 296 319.1 296 327.9V349.8C296 358.7 293.5 367.4 288.9 375L243.4 449C240.7 453.4 235.9 456 230.8 456 222.6 456 216 449.4 216 441.2V425.9C216 408.9 206.4 393.3 191.2 385.7 186.8 383.5 184 379 184 374.1V329.4L137.4 282.8C125.4 270.8 109.1 264.1 92.1 264.1H40.3V264ZM227.2 96H224C100.3 96 0 196.3 0 320 0 443.7 100.3 544 224 544 347.7 544 448 443.7 448 320 448 208.3 366.3 115.8 259.4 98.8 248.9 97.1 238.1 96.2 227.1 96H227.2Z"/>
</svg>