
<svg viewBox="0 0 576 576" xmlns="http://www.w3.org/2000/svg">
    <path d="M512 32V32C529.673 32 544 46.326 544 64 544 81.673 529.673 96 512 96V96C494.326 96 480 81.673 480 64 480 46.326 494.326 32 512 32ZM512 128V128C547.346 128 576 99.346 576 64 576 28.653 547.346 0 512 0V0C476.653 0 448 28.653 448 64 448 99.346 476.653 128 512 128ZM224 480C118 480 32 394 32 288 32 279.9 32.5 271.9 33.5 264H92.1C100.6 264 108.7 267.4 114.7 273.4L152 310.6V342.1C152 359.1 161.6 374.7 176.8 382.3 181.2 384.5 184 389 184 393.9V409.2C184 435 205 456 230.8 456 247 456 262.1 447.6 270.7 433.7L316.2 359.8C324 347.2 328.1 332.7 328.1 317.9V296C328.1 269.5 306.6 248 280.1 248H218.5C213.3 248 208.5 245 206.1 240.3 203.9 235.9 204.2 230.6 207 226.4L249.3 163C259.1 148.3 263.7 130.9 262.6 113.3L261.7 99.7C349.6 117.2 416 194.8 416 288 416 394 330 480 224 480ZM40.3 232C64.3 153.3 137.4 96 224 96 225.8 96 227.5 96 229.3 96.1L230.6 115.4C231.3 125.9 228.5 136.4 222.6 145.2L180.3 208.7C171.2 222.4 170.1 239.9 177.4 254.6 185.2 270.1 201 279.9 218.4 279.9H280C288.8 279.9 296 287.1 296 295.9V317.8C296 326.7 293.5 335.4 288.9 343L243.4 417C240.7 421.4 235.9 424 230.8 424 222.6 424 216 417.4 216 409.2V393.9C216 376.9 206.4 361.3 191.2 353.7 186.8 351.5 184 347 184 342.1V304 297.4L179.3 292.7 137.4 250.8C125.4 238.8 109.1 232.1 92.1 232.1H40.3ZM227.2 64C226.1 64 225.1 64 224 64 100.3 64 0 164.3 0 288 0 411.7 100.3 512 224 512 347.7 512 448 411.7 448 288 448 176.3 366.3 83.8 259.4 66.8V66.8C248.9 65.1 238.1 64.2 227.1 64V64Z"/>
</svg>