
<svg viewBox="0 0 640 640" xmlns="http://www.w3.org/2000/svg">
    <path d="M591.5 256C641.5 206 641.5 125 591.5 75 541.5 25 460.5 25 410.5 75L387.9 97.6C381.7 103.8 381.7 114 387.9 120.2 394.1 126.4 404.3 126.4 410.5 120.2L433.1 97.6C470.6 60.1 531.4 60.1 568.9 97.6 606.4 135.1 606.4 195.9 568.9 233.4L444.3 357.9C406.9 395.3 346.2 395.3 308.7 357.9 273.1 322.3 271.1 265.3 304 227.3L309.3 221.2C315.1 214.5 314.4 204.4 307.7 198.6 301 192.8 290.9 193.5 285.1 200.2L279.8 206.3C235.9 257 238.6 333 286 380.4 335.9 430.3 416.9 430.3 466.8 380.4L591.5 256ZM48.5 256C-1.5 306-1.5 387 48.5 437 98.5 487 179.5 487 229.5 437L252.1 414.4C258.3 408.2 258.3 398 252.1 391.8 245.9 385.6 235.7 385.6 229.5 391.8L206.9 414.4C169.4 451.9 108.6 451.9 71.1 414.4 33.6 376.9 33.6 316.1 71.1 278.6L195.7 154.1C233.1 116.7 293.8 116.7 331.3 154.1 366.9 189.7 368.9 246.7 336 284.7L330.7 290.8C324.9 297.5 325.6 307.6 332.3 313.4 339 319.2 349.1 318.5 354.9 311.8L360.2 305.7C404.1 255 401.4 179 354 131.6 303.9 81.5 223 81.5 173 131.4L48.5 256Z"/>
</svg>