
<svg viewBox="0 0 640 640" xmlns="http://www.w3.org/2000/svg">
    <path d="M591.5 320C641.5 270 641.5 189 591.5 139 541.5 89 460.5 89 410.5 139L387.9 161.6C381.7 167.8 381.7 178 387.9 184.2 394.1 190.4 404.3 190.4 410.5 184.2L433.1 161.6C470.6 124.1 531.4 124.1 568.9 161.6 606.4 199.1 606.4 259.9 568.9 297.4L444.3 421.9C406.9 459.3 346.2 459.3 308.7 421.9 273.1 386.3 271.1 329.3 304 291.3L309.3 285.2C315.1 278.5 314.4 268.4 307.7 262.6 301 256.8 290.9 257.5 285.1 264.2L279.8 270.3C235.9 321 238.6 397 286 444.4 335.9 494.3 416.9 494.3 466.8 444.4L591.5 320ZM48.5 320C-1.5 370-1.5 451 48.5 501 98.5 551 179.5 551 229.5 501L252.1 478.4C258.3 472.2 258.3 462 252.1 455.8 245.9 449.6 235.7 449.6 229.5 455.8L206.9 478.4C169.4 515.9 108.6 515.9 71.1 478.4 33.6 440.9 33.6 380.1 71.1 342.6L195.7 218.1C233.1 180.7 293.8 180.7 331.3 218.1 366.9 253.7 368.9 310.7 336 348.7L330.7 354.8C324.9 361.5 325.6 371.6 332.3 377.4 339 383.2 349.1 382.5 354.9 375.8L360.2 369.7C404.1 319 401.4 243 354 195.6 303.9 145.5 223 145.5 173 195.4L48.5 320Z"/>
</svg>