<svg viewBox="0 0 512 512" xmlns="http://www.w3.org/2000/svg">
    <path d="M448 64H64C28.65 64 0 92.65 0 128V384C0 419.35 28.65 448 64 448H448C483.35 448 512 419.35 512 384V128C512 92.65 483.3 64 448 64ZM64 96H448C465.64 96 480 110.36 480 128V164.01L284.8 310.41C267.8 323.13 244.17 323.13 227.17 310.41L32 164V128C32 110.4 46.36 96 64 96ZM480 384C480 401.64 465.64 416 448 416H64C46.36 416 32 401.64 32 384V203.1L208 336C222.12 346.61 239.06 352.02 256 352.02 272.94 352.02 289.9 346.6 304 336L480 203.1V384Z"/>
</svg>
