
<svg viewBox="0 0 512 512" xmlns="http://www.w3.org/2000/svg">
    <path d="M256 232C242.8 232 232 242.8 232 256 232 269.2 242.8 280 256 280 269.2 280 280 269.3 280 256 280 242.7 269.2 232 256 232ZM256 127.1C185.31 127.1 128 184.41 128 255.1 128 325.79 185.31 383.1 256 383.1 326.69 383.1 384 325.79 384 255.1 384 185.3 326.7 127.1 256 127.1ZM256 352C203.07 352 160 308.93 160 256 160 203.06 203.07 160 256 160 308.94 160 352 203.06 352 256 352 308.9 308.9 352 256 352ZM256 0C114.6 0 0 114.6 0 256 0 397.4 114.6 512 256 512 397.4 512 512 397.4 512 256 512 114.6 397.4 0 256 0ZM256 480C132.5 480 32 379.5 32 256 32 132.5 132.5 32 256 32 379.5 32 480 132.5 480 256 480 379.5 379.5 480 256 480Z"/>
</svg>