
<svg viewBox="0 -64 640 640" xmlns="http://www.w3.org/2000/svg">
    <path d="M89.06 398.1L306.16 446.5C310.7 447.5 315.3 448 320 448 324.7 448 329.312 447.49 333.88 446.471L550.98 398.071C565.6 394.8 576 381.8 576 366.7V39.47C576 17.32 558.01.01 536.69.01 536.2.012 535.9 0 535.6 0 532.7 0 522.6 1.673 320 33.13 117.1 1.63 107.4.002 104.4.002 104.042.002 103.782.012 103.295.012 81.99.01 64 17.32 64 39.47V366.7C64 381.8 74.42 394.8 89.06 398.1ZM336 63.1C336 63.1 531.4 32.71 536.6 32.03 540.1 32.03 544 34.91 544 39.56L543.976 366.86 336 413.2V63.1ZM96 39.56C96 36.937 97.203 35.193 98.211 34.191 98.949 33.456 100.459 32.269 103.475 32.043 108.8 32.74 304 63.1 304 63.1V413.2L96 366.7V39.56ZM624 32C615.2 32 608 39.16 608 48V383.6C608 406.48 591.7 426.29 569.27 430.69L320 479.7 70.7 430.73C48.3 426.3 32 406.5 32 383.6V48C32 39.16 24.84 32 16 32 7.16 32 0 39.16 0 48V383.6C0 421.73 27.16 454.74 64.58 462.1L316.88 511.68C317.9 511.9 318.1 512 320 512 321.9 512 322.062 511.906 323.078 511.703L575.478 462.123C612.8 454.8 640 421.8 640 383.6V48C640 39.16 632.8 32 624 32Z"/>
</svg>