
<svg viewBox="0 0 512 512" xmlns="http://www.w3.org/2000/svg">
    <path d="M256 0C176.5 0 112 64.5 112 144V160H96C60.7 160 32 188.7 32 224V420.2L2.4 479.5C.8 482.6 0 486 0 489.5 0 501.9 10.1 512 22.5 512H128C136.8 512 144 504.8 144 496V406.6L180.7 443.3C183.7 446.3 187.8 448 192 448H320C324.2 448 328.3 446.3 331.3 443.3L368 406.6V496C368 504.8 375.2 512 384 512H489.5C501.9 512 512 501.9 512 489.5 512 486 511.2 482.6 509.6 479.5L480 420.2V224C480 188.7 451.3 160 416 160H400V144C400 64.5 335.5 0 256 0ZM400 192H416C433.7 192 448 206.3 448 224V424C448 426.5 448.6 428.9 449.7 431.2L474.1 480H400V368 192ZM368 192V361.4L313.4 416H198.6L144 361.4V192H368ZM112 192V368 480H37.9L62.3 431.2C63.4 429 64 426.5 64 424V224C64 206.3 78.3 192 96 192H112ZM144 144C144 82.1 194.1 32 256 32 317.9 32 368 82.1 368 144V160H144V144ZM224 128V128C241.673 128 256 113.673 256 96 256 78.326 241.673 64 224 64V64C206.326 64 192 78.326 192 96 192 113.673 206.326 128 224 128ZM304 128V128C312.836 128 320 120.836 320 112 320 103.163 312.836 96 304 96V96C295.163 96 288 103.163 288 112 288 120.836 295.163 128 304 128ZM192 240C192 248.8 199.2 256 208 256H304C312.8 256 320 248.8 320 240 320 231.2 312.8 224 304 224H208C199.2 224 192 231.2 192 240ZM192 304C192 312.8 199.2 320 208 320H304C312.8 320 320 312.8 320 304 320 295.2 312.8 288 304 288H208C199.2 288 192 295.2 192 304Z"/>
</svg>