
<svg viewBox="0 0 512 512" xmlns="http://www.w3.org/2000/svg">
    <path d="M448 0H320C302.33 0 288 14.33 288 32V56C288 73.67 302.33 88 320 88H336C344.836 88 352 95.162 352 104 352 112.836 344.836 120 336 120H320C302.33 120 288 134.33 288 152V176C288 193.67 302.33 208 320 208H352C352 234.5 373.5 256 400 256 426.5 256 448 234.5 448 208H480C497.67 208 512 193.67 512 176V64C512 28.65 483.3 0 448 0ZM480 176H432C423.2 176 416 183.2 416 192V208C416 216.8 408.8 224 400 224 391.2 224 384 216.8 384 208V192C384 183.162 376.836 176 368 176H320V152H336C362.51 152 384 130.51 384 104 384 77.49 362.51 56 336 56H320V32H448C465.67 32 480 46.33 480 64V176ZM416 272H352C343.164 272 336 279.162 336 288V320C336 328.834 328.836 336 320 336 311.164 336 304 328.834 304 320V288C304 279.162 296.836 272 288 272H240V96C240 78.33 225.67 64 208 64H64C28.65 64 0 92.65 0 128V288 448C0 483.35 28.65 512 64 512H224 384C419.35 512 448 483.35 448 448V304C448 286.3 433.7 272 416 272ZM32 128C32 110.33 46.33 96 64 96H208V272H176V256C176 229.49 154.51 208 128 208 101.49 208 80 229.5 80 256V272H32V128ZM208 480H64C46.33 480 32 465.67 32 448V304H96C104.836 304 112 296.836 112 288V256C112 247.162 119.164 240 128 240 136.836 240 144 247.2 144 256V288C144 296.836 151.164 304 160 304H208V336H192C165.49 336 144 357.49 144 384 144 410.51 165.49 432 192 432H208V480ZM416 448C416 465.67 401.67 480 384 480H240V416C240 407.164 232.836 400 224 400H192C183.164 400 176 392.834 176 384 176 375.164 183.164 368 192 368H224C232.836 368 240 360.834 240 352V304H272V320C272 346.51 293.49 368 320 368 346.51 368 368 346.51 368 320V304H416V448Z"/>
</svg>