
<svg viewBox="-8 0 512 512" xmlns="http://www.w3.org/2000/svg">
    <path d="M248 8C111.033 8 0 119.033 0 256 0 392.967 111.033 504 248 504 384.967 504 496 392.967 496 256 496 119.033 384.967 8 248 8ZM362.952 176.66C359.22 215.875 343.071 311.038 334.852 354.96 331.376 373.544 324.53 379.776 317.904 380.385 303.504 381.711 292.566 370.868 278.617 361.724 256.79 347.416 244.459 338.509 223.271 324.547 198.786 308.412 214.659 299.547 228.613 285.047 232.265 281.254 295.72 223.537 296.948 218.301 297.101 217.646 297.248 215.201 295.794 213.917 294.34 212.633 292.204 213.068 290.659 213.417Q287.376 214.163 186.051 282.559 171.206 292.753 159.157 292.493C150.302 292.302 133.269 287.487 120.606 283.37 105.075 278.322 92.731 275.653 93.806 267.079Q94.646 260.379 112.256 253.379 220.702 206.131 256.884 191.079C325.756 162.432 340.067 157.456 349.395 157.29 351.447 157.256 356.034 157.764 359.005 160.175V160.175C360.981 161.892 362.241 164.289 362.535 166.891V166.891C363.038 170.121 363.178 173.398 362.952 176.66Z"/>
</svg>