
<svg viewBox="0 0 512 512" xmlns="http://www.w3.org/2000/svg">
    <path d="M36.18 299.3C38.24 300 40.39 300.8 42.65 301.6 78.98 314.7 142.1 337.4 256 337.4 369.9 337.4 433 314.7 469.3 301.6 471.6 300.8 473.8 300 475.8 299.3 478.6 285.3 480 270.8 480 256H432C423.2 256 416 248.8 416 240 416 231.2 423.2 224 432 224H495.5C503.9 224 510.9 230.5 511.4 238.9 511.8 244.6 512 250.3 512 256 512 276 509.7 295.6 505.3 314.3 504.5 317.9 502.4 321.2 499.4 323.4L497.7 324.7C496.3 325.8 494.7 326.6 493.1 327.2 489.2 328.5 484.8 330.1 479.8 331.8 442.1 345.1 375.5 369.4 256 369.4 151.2 369.4 86.35 350.7 47.15 337.2 79.66 420.8 160.9 480 256 480 324.9 480 386.5 448.9 427.6 400H416C407.2 400 400 392.8 400 384 400 375.2 407.2 368 416 368H459.1C464.9 368 470.3 371.2 473.1 376.3 475.9 381.4 475.7 387.6 472.6 392.5 427.3 464.3 347.2 512 256 512 114.6 512 0 397.4 0 256 0 114.6 114.6 0 256 0 339.8 0 414.1 40.24 460.8 102.4 464.4 107.2 465 113.7 462.3 119.1 459.6 124.6 454.1 127.1 448 127.1H368C359.2 127.1 352 120.8 352 111.1 352 103.1 359.2 95.98 368 95.98H412.7C372.3 56.38 317 32 256 32 132.3 32 32 132.3 32 256 32 270.8 33.44 285.3 36.18 299.3V299.3ZM216 160C216 173.3 205.3 184 192 184 178.7 184 168 173.3 168 160 168 146.7 178.7 136 192 136 205.3 136 216 146.7 216 160ZM280 160C280 208.6 240.6 248 192 248 143.4 248 104 208.6 104 160 104 111.4 143.4 72 192 72 240.6 72 280 111.4 280 160ZM192 104C161.1 104 136 129.1 136 160 136 190.9 161.1 216 192 216 222.9 216 248 190.9 248 160 248 129.1 222.9 104 192 104ZM448 160C456.8 160 464 167.2 464 176 464 184.8 456.8 192 448 192H368C359.2 192 352 184.8 352 176 352 167.2 359.2 160 368 160H448Z"/>
</svg>